<svg id="Layer_1" height="512" viewBox="0 0 512 512" width="512" xmlns="http://www.w3.org/2000/svg" data-name="Layer 1"><path d="m381.068 160h-250.136l5.004 60h240.127z"/><circle cx="256" cy="309.204" r="49.099"/><path d="m132.538 389h245.862l13.234-159h-271.306zm123.462-138.9a59.1 59.1 0 1 1 -59.1 59.1 59.167 59.167 0 0 1 59.1-59.1zm-101.863 29.86 4.792 62.375a5 5 0 0 1 -4.6 5.368c-.13.01-.26.015-.389.015a5 5 0 0 1 -4.98-4.618l-4.791-62.374a5 5 0 0 1 9.97-.766zm-7.981-38.606a5.005 5.005 0 0 1 5.369 4.6l.672 8.746a5 5 0 0 1 -4.6 5.368c-.13.009-.26.015-.388.015a5 5 0 0 1 -4.98-4.618l-.672-8.745a5 5 0 0 1 4.599-5.362z"/><path d="m156.711 472h198.577l5.976-73h-210.529z"/><path d="m348.856 40h-186.756a8.2 8.2 0 0 0 -7.364 4.938l-13.724 31.062h228.929l-13.721-31.062a8.2 8.2 0 0 0 -7.364-4.938z"/><path d="m383.771 86h-255.542c-9.243 0-17.229 7.66-17.229 16.9v47.1h290v-47.1c0-9.24-7.986-16.9-17.229-16.9zm-246.771 42.763a5 5 0 1 1 -10 0v-21.508a5 5 0 0 1 10 0zm27 0a5 5 0 1 1 -10 0v-21.508a5 5 0 0 1 10 0zm28 0a5 5 0 1 1 -10 0v-21.508a5 5 0 0 1 10 0zm28 0a5 5 0 1 1 -10 0v-21.508a5 5 0 0 1 10 0zm27 0a5 5 0 1 1 -10 0v-21.508a5 5 0 0 1 10 0zm28 0a5 5 0 1 1 -10 0v-21.508a5 5 0 0 1 10 0zm27 0a5 5 0 1 1 -10 0v-21.508a5 5 0 0 1 10 0zm28 0a5 5 0 1 1 -10 0v-21.508a5 5 0 0 1 10 0zm28 0a5 5 0 1 1 -10 0v-21.508a5 5 0 0 1 10 0zm27 0a5 5 0 1 1 -10 0v-21.508a5 5 0 0 1 10 0z"/></svg>