<svg id="Glyph" enable-background="new 0 0 64 64" height="512" viewBox="0 0 64 64" width="512" xmlns="http://www.w3.org/2000/svg"><path d="m17 49c-3.314 0-6 2.686-6 6s2.686 6 6 6 6-2.686 6-6-2.686-6-6-6zm0 10c-2.209 0-4-1.791-4-4s1.791-4 4-4 4 1.791 4 4-1.791 4-4 4z"/><path d="m47 49c-3.314 0-6 2.686-6 6s2.686 6 6 6 6-2.686 6-6-2.686-6-6-6zm0 10c-2.209 0-4-1.791-4-4s1.791-4 4-4 4 1.791 4 4-1.791 4-4 4z"/><path d="m49 42c-3-2-5-7.721-10-10.721-4.618-2.771-16.582-5.239-24-1-7 4-6 13.721-12 14.721v13h6.589c-.377-.927-.589-1.939-.589-3 0-4.411 3.589-8 8-8s8 3.589 8 8c0 1.061-.212 2.073-.589 3h15.178c-.377-.927-.589-1.939-.589-3 0-4.411 3.589-8 8-8s8 3.589 8 8c0 1.061-.212 2.073-.589 3h6.589s-.419-9.419-2-11c-2-2-7-3-10-5zm-36.998-1c.114-.25.228-.501.338-.744 1.199-2.664 2.331-5.182 4.645-6.504 2.005-1.146 4.773-1.752 8.002-1.752.672 0 1.345.029 2.013.079v8.921zm16.998 0v-8.702c3.362.479 6.365 1.465 7.942 2.411 2.162 1.298 3.713 3.457 5.213 5.544.182.254.363.498.544.747z"/><path d="m8 33v-2c-2.206 0-4-1.794-4-4s1.794-4 4-4h43.5c5.79 0 10.5-4.71 10.5-10.5s-4.71-10.5-10.5-10.5h-25.5v2h25.5c4.687 0 8.5 3.813 8.5 8.5s-3.813 8.5-8.5 8.5h-43.5c-3.309 0-6 2.691-6 6s2.691 6 6 6z"/><path d="m21 2h3v2h-3z"/><path d="m15 2h3v2h-3z"/><path d="m10 2h3v2h-3z"/><path d="m6 2h2v2h-2z"/><path d="m2 2h2v2h-2z"/></svg>